<?xml version="1.0" encoding="UTF-8"?><svg id="uuid-38670973-48a2-4b89-b5fc-ae07b3988278" xmlns="http://www.w3.org/2000/svg" viewBox="0 0 250 250"><defs><style>.uuid-5ce3556b-487c-4308-bd73-9009c36e2f79{fill:#4285f4;}.uuid-32df71ff-f708-4302-b31b-f1540c9a4d56{fill:#fbbc05;}.uuid-3c4a4c11-c329-4d92-b8f2-51ce7ca9b412{fill:#34a853;}.uuid-79d047e6-2a3d-4938-923a-23b2c9973725{fill:#ea4335;}</style></defs><path class="uuid-5ce3556b-487c-4308-bd73-9009c36e2f79" d="m237.7,127.61c0-8.15-.73-16-2.09-23.52h-108.31v44.54h61.89c-2.72,14.32-10.87,26.45-23.1,34.6v28.96h37.32c21.75-20.07,34.29-49.55,34.29-84.58Z"/><path class="uuid-3c4a4c11-c329-4d92-b8f2-51ce7ca9b412" d="m127.3,240c31.05,0,57.08-10.25,76.11-27.81l-37.32-28.96c-10.25,6.9-23.31,11.08-38.79,11.08-29.9,0-55.3-20.18-64.4-47.36H24.64v29.69c18.92,37.53,57.71,63.35,102.66,63.35Z"/><path class="uuid-32df71ff-f708-4302-b31b-f1540c9a4d56" d="m62.9,146.85c-2.3-6.9-3.66-14.22-3.66-21.85s1.36-14.95,3.66-21.85v-29.69H24.64c-7.84,15.47-12.34,32.93-12.34,51.54s4.5,36.07,12.34,51.54l29.8-23.21s8.47-6.48,8.47-6.48Z"/><path class="uuid-79d047e6-2a3d-4938-923a-23b2c9973725" d="m127.3,55.79c16.94,0,31.99,5.85,44.01,17.15l32.93-32.93c-19.97-18.61-45.9-30-76.95-30-44.95,0-83.74,25.82-102.66,63.46l38.26,29.69c9.1-27.18,34.5-47.36,64.4-47.36Z"/></svg>