<?xml version="1.0" encoding="UTF-8"?><svg id="uuid-c977d0df-9079-4303-add4-6c0724a42cc7" xmlns="http://www.w3.org/2000/svg" viewBox="0 0 250 250"><defs><style>.uuid-b552a375-26bc-4d39-a23e-60379407d3d3{fill:#f8ab00;}.uuid-36611760-ba7a-4b47-b825-2469618840f5{fill:#e37300;}</style></defs><g id="uuid-47d0de70-9b5c-4a06-9c90-7b3263eea98e"><path id="uuid-37a6a7ca-64c2-4349-af6e-f98382ddb2fe" class="uuid-b552a375-26bc-4d39-a23e-60379407d3d3" d="m169.43,37.44v172.5c0,19.32,13.31,30.06,27.44,30.06,13.07,0,27.44-9.15,27.44-30.06V38.75c0-17.68-13.07-28.75-27.44-28.75s-27.44,12.21-27.44,27.44Z"/><path id="uuid-9adf2b52-d5b1-4c8b-8ae5-a08a2653999a" class="uuid-36611760-ba7a-4b47-b825-2469618840f5" d="m97.56,125v84.94c0,19.32,13.31,30.06,27.44,30.06,13.07,0,27.44-9.15,27.44-30.06v-83.64c0-17.68-13.07-28.75-27.44-28.75s-27.44,12.21-27.44,27.44h0Z"/><path id="uuid-1c09a9a2-af4f-49f1-932e-e5339b8b75cf" class="uuid-36611760-ba7a-4b47-b825-2469618840f5" d="m80.57,212.56c0,15.15-12.29,27.44-27.44,27.44s-27.44-12.29-27.44-27.44,12.29-27.44,27.44-27.44,27.44,12.29,27.44,27.44"/></g></svg>