<?xml version="1.0" encoding="UTF-8"?><svg id="uuid-0d52bad1-746b-4d76-a26a-21b7500a7ace" xmlns="http://www.w3.org/2000/svg" viewBox="0 0 250 250"><defs><style>.uuid-4b1474c3-57c7-44fe-b591-c69a0a38d17b{fill:#8ab4f8;}.uuid-b053deee-bd9a-4d58-a17f-ed515959c9cb{fill:#4285f4;}.uuid-498e77cb-04a8-48f2-a73b-5564178e91d1{fill:#246fdb;}</style></defs><polygon class="uuid-4b1474c3-57c7-44fe-b591-c69a0a38d17b" points="145 230.58 105.08 191.65 190.82 104.09 232.15 144.6 145 230.58"/><path class="uuid-b053deee-bd9a-4d58-a17f-ed515959c9cb" d="m145.17,58.46l-39.78-40.62L18.41,104c-11.21,11.21-11.21,29.39,0,40.62l85.67,86.24,40.51-37.9-65.27-68.65,65.85-65.85Z"/><path class="uuid-4b1474c3-57c7-44fe-b591-c69a0a38d17b" d="m231.58,104.67L145.33,18.42c-11.23-11.23-29.43-11.23-40.65,0-11.23,11.23-11.23,29.43,0,40.65l86.25,86.25c11.23,11.23,29.43,11.23,40.65,0,11.23-11.23,11.23-29.43,0-40.65Z"/><circle class="uuid-498e77cb-04a8-48f2-a73b-5564178e91d1" cx="124.34" cy="211.9" r="28.1"/></svg>