<?xml version="1.0" encoding="UTF-8"?><svg id="uuid-9d0ac6a7-e343-4b1d-bf87-517a5c4ce18d" xmlns="http://www.w3.org/2000/svg" viewBox="0 0 250 250"><defs><style>.uuid-d7bcf255-0b8f-47c8-8b92-56fd5cc874eb{fill:#ff9a00;}.uuid-8262dd2c-6089-4935-a617-9e8615cb0d28{fill:#300;}</style></defs><g id="uuid-5f5c99f3-f186-48e6-8504-88da23a19af3"><g id="uuid-3995de5b-116b-4cca-9ee1-c8180624b28c"><g id="uuid-316a79fa-5785-4302-a0c8-b358d6ad7786"><g id="uuid-18f828f4-4850-4e47-873a-ecf8fab444ac"><path class="uuid-8262dd2c-6089-4935-a617-9e8615cb0d28" d="m50.73,12.88h148.54c22.52,0,40.73,18.21,40.73,40.73v142.79c0,22.52-18.21,40.73-40.73,40.73H50.73c-22.52,0-40.73-18.21-40.73-40.73V53.6c0-22.52,18.21-40.73,40.73-40.73Z"/></g></g></g><g id="uuid-8b79eeb9-452b-4218-8d65-f095bbe1135a"><g id="uuid-6f64f3e8-625d-4c20-ba5e-b660a11f3c58"><path class="uuid-d7bcf255-0b8f-47c8-8b92-56fd5cc874eb" d="m121.45,147.42h-35.65l-7.28,22.52c-.19.86-.96,1.44-1.82,1.34h-18.02c-1.05,0-1.34-.58-1.05-1.73l30.86-88.84c.29-.96.57-2.01.96-3.16.38-2.01.57-4.12.57-6.23-.1-.48.29-.96.77-1.05h24.82c.77,0,1.15.29,1.25.77l34.98,98.71c.29,1.05,0,1.53-.96,1.53h-20.03c-.67.1-1.34-.38-1.53-1.05l-7.86-22.81Zm-30.09-19.45h24.34c-.57-2.01-1.34-4.41-2.2-6.9-.86-2.59-1.73-5.37-2.59-8.24-.96-2.97-1.82-5.85-2.78-8.82s-1.82-5.75-2.59-8.53c-.77-2.68-1.44-5.18-2.11-7.48h-.19c-.86,4.12-1.92,8.24-3.26,12.36-1.44,4.6-2.88,9.39-4.41,14.18-1.34,4.89-2.78,9.39-4.22,13.42h0Z"/><path class="uuid-d7bcf255-0b8f-47c8-8b92-56fd5cc874eb" d="m172.73,86.67c-3.16.1-6.23-1.15-8.53-3.35-2.2-2.4-3.35-5.56-3.26-8.82-.1-3.26,1.15-6.32,3.45-8.53,2.3-2.2,5.37-3.35,8.53-3.35,3.74,0,6.61,1.15,8.72,3.35,2.11,2.3,3.26,5.37,3.16,8.53.1,3.26-1.05,6.42-3.35,8.82-2.2,2.3-5.46,3.55-8.72,3.35Zm-10.73,83.18v-73.79c0-.96.38-1.34,1.25-1.34h18.98c.86,0,1.25.48,1.25,1.34v73.79c0,1.05-.38,1.53-1.25,1.53h-18.78c-.96,0-1.44-.58-1.44-1.53Z"/></g></g></g></svg>