<?xml version="1.0" encoding="UTF-8"?><svg id="uuid-85fc0e89-dcb7-41db-b357-0f3f7880ad49" xmlns="http://www.w3.org/2000/svg" viewBox="0 0 250 250"><defs><style>.uuid-d1dc94e5-f2da-4e45-8072-daa52fcc53f7{fill:#5e97f6;}.uuid-6569d1ca-d55a-4211-89d5-297594b5036a{fill:#4285f4;}.uuid-ee1889c1-9759-4c83-abc3-cc0ac56fb52e{fill:#aecbfa;}</style></defs><path class="uuid-ee1889c1-9759-4c83-abc3-cc0ac56fb52e" d="m124.23,10c-11.52,0-20.16,8.63-20.16,20.16,0,3.84.96,7.68,3.84,11.52l8.63-8.63v-2.88c0-4.8,3.84-8.63,8.63-8.63s8.63,3.84,8.63,8.63-3.84,8.63-8.63,8.63h-2.88l-8.63,7.68c9.6,5.76,22.08,3.84,27.84-5.76,5.76-9.6,3.84-22.08-5.76-27.84-2.88-1.91-6.72-2.88-11.52-2.88h0Z"/><path class="uuid-d1dc94e5-f2da-4e45-8072-daa52fcc53f7" d="m116.55,68.56c0-6.72-1.91-13.44-5.76-19.19l-11.52,11.52c.96,2.88,1.91,4.8,1.91,7.68,0,4.8-1.91,8.63-4.81,11.52l5.76,15.36c9.6-5.76,14.4-16.32,14.4-26.88v-.02Z"/><path class="uuid-d1dc94e5-f2da-4e45-8072-daa52fcc53f7" d="m85.83,84.88c-8.63,0-16.32-6.72-16.32-15.37s6.72-16.32,15.37-16.32c2.88,0,6.72.96,9.6,2.88l11.52-10.56c-6.72-5.76-13.44-8.63-21.12-8.63-17.28,0-31.68,14.4-31.68,31.68s13.44,31.68,31.68,31.68c1.91,0,4.8,0,6.72-.96l-5.76-14.4h-.01Z"/><path class="uuid-6569d1ca-d55a-4211-89d5-297594b5036a" d="m125.2,97.35c-6.72,0-13.44.96-20.16,2.88l8.63,21.12c3.84,0,7.68-.96,11.52-.96,26.88,0,48,22.08,48,48s-22.08,48-48,48-48-22.09-48-48c0-18.24,9.6-34.56,25.91-42.24l-8.63-21.12c-35.52,17.29-49.91,60.49-32.65,95.05,17.28,35.52,60.47,49.91,95.03,32.63,35.52-17.28,49.91-60.47,32.63-95.03-12.48-24-37.44-40.32-64.32-40.32h.01Z"/></svg>