<?xml version="1.0" encoding="UTF-8"?><svg id="uuid-718b21fb-bd97-4a05-96a8-0aaaba41cf1a" xmlns="http://www.w3.org/2000/svg" viewBox="0 0 250 250"><defs><style>.uuid-e73fb34b-ee6d-49ec-a5ff-f299b3c94062{fill:#99f;}.uuid-c53f2a54-75a4-4f46-8f7e-e405cb0413f2{fill:#00005b;}</style></defs><g id="uuid-13fb8a6d-cf82-43c1-9e4e-2e67f0e828c7"><g id="uuid-a9fe8447-5325-4ac0-a4ec-b362014c6708"><g id="uuid-cf1d60a9-3750-4eac-b79c-b07cde72ab77"><g id="uuid-971beab6-20b9-4790-bc4c-7295315652f4"><path class="uuid-c53f2a54-75a4-4f46-8f7e-e405cb0413f2" d="m50.73,12.88h148.54c22.52,0,40.73,18.21,40.73,40.73v142.79c0,22.52-18.21,40.73-40.73,40.73H50.73c-22.52,0-40.73-18.21-40.73-40.73V53.6c0-22.52,18.21-40.73,40.73-40.73Z"/></g></g></g><g id="uuid-4bbb4168-4f0f-4d4d-acee-e15ab22253a6"><g id="uuid-2c84fb6f-59f9-4d91-950f-ff7561d6b45d"><path class="uuid-e73fb34b-ee6d-49ec-a5ff-f299b3c94062" d="m64.62,170.14v-98.61c0-.67.29-1.05.96-1.05,1.63,0,3.16,0,5.37-.1,2.3-.1,4.7-.1,7.28-.19,2.59-.1,5.37-.1,8.34-.19,2.97-.1,5.85-.1,8.72-.1,7.86,0,14.38.96,19.74,2.97,4.79,1.63,9.2,4.31,12.84,7.86,3.07,3.07,5.46,6.8,7,10.93,1.44,4.02,2.2,8.15,2.2,12.46,0,8.24-1.92,15.05-5.75,20.41s-9.2,9.39-15.43,11.69c-6.52,2.4-13.7,3.26-21.56,3.26-2.3,0-3.83,0-4.79-.1s-2.3-.1-4.12-.1v30.76c.1.67-.38,1.25-1.05,1.34h-18.59c-.77,0-1.15-.38-1.15-1.25Zm20.89-81.17v32.2c1.34.1,2.59.19,3.74.19h5.08c3.74,0,7.48-.57,11.02-1.73,3.07-.86,5.75-2.68,7.86-5.08,2.01-2.4,2.97-5.65,2.97-9.87.1-2.97-.67-5.94-2.2-8.53-1.63-2.49-3.93-4.41-6.71-5.46-3.55-1.44-7.38-2.01-11.31-1.92-2.49,0-4.7,0-6.52.1-1.92-.1-3.26,0-3.93.1h0Z"/><path class="uuid-e73fb34b-ee6d-49ec-a5ff-f299b3c94062" d="m150.49,94.52h16.77c.96,0,1.73.67,2.01,1.53.29.77.48,1.53.58,2.4.19.96.38,2.01.48,2.97.1,1.05.19,2.2.19,3.45,2.88-3.35,6.33-6.13,10.25-8.24,4.41-2.49,9.49-3.74,14.57-3.74.67-.1,1.25.38,1.34,1.05v19.07c0,.77-.48,1.05-1.53,1.05-3.45-.1-7,.19-10.35.96-2.78.57-5.46,1.44-8.05,2.59-1.82.86-3.55,2.01-4.89,3.55v48.88c0,.96-.38,1.34-1.25,1.34h-18.88c-.77.1-1.44-.38-1.53-1.15v-53.47c0-2.3,0-4.7-.1-7.19s-.1-4.98-.19-7.48c0-2.2-.19-4.31-.38-6.52-.1-.48.19-.96.67-1.05,0-.1.19-.1.29,0h0Z"/></g></g></g></svg>